<svg width="200" height="28" viewBox="0 0 200 28" fill="none" xmlns="http://www.w3.org/2000/svg">
<g clip-path="url(#clip0_402_19656)">
<path d="M0.0329285 3.91072L11.4499 2.34136V13.3584H0.0339796L0.0329285 3.91072ZM11.4499 14.7682V25.6607L0.0345052 24.0937L0.0342424 14.7687H11.4502L11.4499 14.7682ZM12.7123 2.16819L27.9039 0.079834V13.3584H12.7123V2.16819ZM27.9039 14.7682V27.9204L12.7123 25.8336V14.7682H27.9039Z" fill="#B7BFC7"/>
<path d="M53.6945 22.2297H51.0553V12.0255C51.0553 11.1891 51.1076 10.1676 51.2119 8.95697H51.1678C51.003 9.646 50.8577 10.1406 50.7316 10.4422L45.9457 22.2297H44.1117L39.3143 10.5305C39.1803 10.1863 39.0384 9.66176 38.8897 8.95829H38.8455C38.9057 9.58897 38.9351 10.6186 38.9351 12.0479V22.2297H36.4747V6.46156H40.2207L44.4365 16.963C44.7569 17.7692 44.9658 18.371 45.0622 18.7662H45.1179C45.3939 17.9377 45.6172 17.3214 45.7888 16.9183L50.0833 6.46156H53.6952L53.6942 22.2297H53.6945ZM58.6485 8.60537C58.2238 8.60537 57.8593 8.47029 57.5585 8.19884C57.2563 7.92764 57.1054 7.58261 57.1054 7.16504C57.1054 6.74747 57.2563 6.39902 57.5585 6.11994C57.8607 5.84192 58.2238 5.70211 58.6485 5.70211C59.0879 5.70211 59.4616 5.84192 59.7669 6.11994C60.0723 6.39902 60.2257 6.74616 60.2257 7.16504C60.2257 7.56027 60.0723 7.89979 59.7669 8.18202C59.4602 8.46478 59.0879 8.60537 58.6485 8.60537ZM59.9338 22.2297H57.3403V10.9694H59.934V22.2297H59.9338ZM71.5305 21.7128C70.6142 22.2332 69.5286 22.4933 68.2762 22.4933C66.5765 22.4933 65.2047 21.9709 64.1609 20.9268C63.1177 19.8828 62.5953 18.5284 62.5953 16.8637C62.5953 15.0089 63.1563 13.5195 64.2781 12.3937C65.4002 11.2684 66.8999 10.7055 68.7791 10.7055C69.8226 10.7055 70.7434 10.8853 71.5407 11.245V13.6198C70.7424 13.0338 69.8931 12.74 68.9917 12.74C67.8959 12.74 66.9977 13.1053 66.2971 13.8343C65.5965 14.5635 65.2455 15.5182 65.2455 16.6984C65.2455 17.8641 65.5747 18.7841 66.2346 19.4584C66.8942 20.133 67.7798 20.4701 68.8905 20.4701C69.8226 20.4701 70.7014 20.1443 71.5292 19.492L71.5305 21.7128ZM80.755 13.3999C80.4415 13.1576 79.9909 13.0372 79.4017 13.0372C78.6338 13.0372 77.9924 13.3775 77.4781 14.0597C76.9636 14.7409 76.706 15.6688 76.706 16.8413V22.2297H74.1113V10.9694H76.706V13.2895H76.7502C77.0035 12.4977 77.393 11.8802 77.9185 11.4369C78.4441 10.9938 79.0314 10.7715 79.6797 10.7715C80.1498 10.7715 80.5075 10.8419 80.754 10.9804L80.755 13.3999ZM87.6881 22.4933C85.9214 22.4933 84.511 21.9675 83.4552 20.9155C82.4003 19.8639 81.8724 18.469 81.8724 16.732C81.8724 14.8402 82.4219 13.3631 83.5222 12.3001C84.6225 11.2372 86.103 10.7055 87.9674 10.7055C89.757 10.7055 91.1503 11.2227 92.1494 12.2565C93.1488 13.2906 93.6473 14.723 93.6473 16.5554C93.6473 18.3521 93.1091 19.7903 92.0314 20.8709C90.9551 21.953 89.5074 22.4933 87.6881 22.4933ZM87.8108 12.74C86.797 12.74 85.9952 13.0885 85.4071 13.7841C84.8177 14.4807 84.5236 15.4409 84.5236 16.6647C84.5236 17.8449 84.8222 18.7741 85.4184 19.4518C86.0144 20.1296 86.8128 20.4688 87.8119 20.4688C88.8341 20.4688 89.6185 20.1351 90.1659 19.4686C90.713 18.8009 90.9879 17.8517 90.9879 16.6201C90.9879 15.3818 90.7143 14.425 90.1659 13.7504C89.6175 13.0772 88.8328 12.74 87.8108 12.74ZM95.5832 21.8781V19.5144C96.5529 20.2402 97.6224 20.6028 98.7918 20.6028C100.358 20.6028 101.14 20.1485 101.14 19.2395C101.14 18.9828 101.073 18.7652 100.939 18.5852C100.805 18.4054 100.625 18.2459 100.396 18.1074C100.168 17.9689 99.9003 17.8438 99.5915 17.7335C99.2814 17.6228 98.9372 17.4988 98.5569 17.3593C98.1219 17.1921 97.698 16.9974 97.2877 16.7764C96.9106 16.5709 96.5984 16.3389 96.3485 16.0787C96.1024 15.8248 95.9104 15.5235 95.7843 15.1931C95.6571 14.8639 95.5945 14.4784 95.5945 14.0387C95.5945 13.4961 95.7251 13.0181 95.9861 12.6039C96.2476 12.1895 96.597 11.8413 97.0367 11.5599C97.4771 11.2774 97.9756 11.0653 98.5354 10.9223C99.1017 10.7785 99.6838 10.7064 100.268 10.7079C101.326 10.7079 102.273 10.8653 103.108 11.1801V13.4122C102.303 12.8696 101.379 12.5981 100.335 12.5981C100.007 12.5981 99.7105 12.6318 99.4462 12.6964C99.1815 12.7624 98.9556 12.8541 98.7692 12.9713C98.5832 13.0885 98.4379 13.2291 98.3333 13.3944C98.2296 13.5567 98.1752 13.7457 98.1767 13.9383C98.1767 14.1804 98.229 14.3859 98.3333 14.5546C98.4379 14.723 98.5921 14.8715 98.7976 15C99.0021 15.1285 99.2486 15.2457 99.5358 15.3516C99.823 15.4578 100.152 15.5739 100.526 15.6979C100.977 15.8774 101.42 16.0794 101.851 16.3031C102.243 16.5084 102.576 16.7407 102.852 17.0008C103.124 17.2549 103.341 17.5619 103.489 17.903C103.638 18.2435 103.713 18.649 103.713 19.1178C103.713 19.6897 103.579 20.1874 103.31 20.6131C103.042 21.0385 102.683 21.3901 102.237 21.6682C101.79 21.9472 101.273 22.1538 100.688 22.2889C100.102 22.4252 99.4858 22.4923 98.8376 22.4923C97.5841 22.4933 96.4996 22.2889 95.5832 21.8781ZM111.261 22.4933C109.494 22.4933 108.083 21.9675 107.028 20.9155C105.973 19.8639 105.446 18.469 105.446 16.732C105.446 14.8402 105.996 13.3631 107.096 12.3001C108.195 11.2372 109.677 10.7055 111.54 10.7055C113.33 10.7055 114.723 11.2227 115.722 12.2565C116.721 13.2906 117.221 14.723 117.221 16.5554C117.221 18.3521 116.683 19.7903 115.605 20.8709C114.528 21.953 113.079 22.4933 111.261 22.4933ZM111.383 12.74C110.369 12.74 109.568 13.0885 108.978 13.7841C108.389 14.4807 108.095 15.4409 108.095 16.6647C108.095 17.8449 108.394 18.7741 108.99 19.4518C109.586 20.1296 110.384 20.4688 111.383 20.4688C112.404 20.4688 113.189 20.1351 113.737 19.4686C114.286 18.8009 114.559 17.8517 114.559 16.6201C114.559 15.3818 114.286 14.425 113.737 13.7504C113.189 13.0772 112.404 12.74 111.383 12.74ZM126.345 7.63832C125.996 7.4407 125.596 7.34137 125.149 7.34137C123.888 7.34137 123.259 8.04143 123.259 9.44155V10.9702H125.921V12.9713H123.271V22.2297H120.676V12.9713H118.72V10.9702H120.676V9.1446C120.676 7.95681 121.071 7.02103 121.861 6.33543C122.652 5.64956 123.64 5.30688 124.825 5.30688C125.467 5.30688 125.973 5.37626 126.345 5.5158V7.63832ZM133.826 22.1091C133.32 22.3582 132.652 22.4833 131.824 22.4833C129.603 22.4833 128.493 21.4348 128.493 19.3391V12.9723H126.581V10.9715H128.493V8.36518L131.087 7.63963V10.9715H133.827V12.9723H131.087V18.6017C131.087 19.2684 131.21 19.7451 131.456 20.031C131.703 20.3169 132.112 20.4599 132.686 20.4599C133.126 20.4599 133.506 20.3358 133.826 20.0857V22.1091ZM155.833 22.2297H152.915L151.472 18.2157H145.166L143.78 22.2297H140.872L146.876 6.46156H149.873L155.833 22.2297H155.833ZM150.767 16.0832L148.543 9.79342C148.476 9.58792 148.404 9.25865 148.331 8.80403H148.286C148.219 9.22186 148.144 9.55218 148.062 9.79342L145.86 16.0832H150.767ZM166.21 12.0366L160.026 20.2389H166.187V22.2297H156.391V21.2729L162.709 12.96H156.995V10.9691H166.21V12.0366ZM178.387 22.2297H175.793V20.4478H175.749C174.996 21.8111 173.825 22.4933 172.238 22.4933C169.532 22.4933 168.179 20.8956 168.179 17.6988V10.9691H170.773V17.4352C170.773 19.4587 171.567 20.4701 173.156 20.4701C173.923 20.4701 174.554 20.1921 175.051 19.635C175.547 19.0779 175.794 18.3487 175.794 17.4465V10.9691H178.389L178.387 22.2297ZM188.417 13.3999C188.104 13.1576 187.653 13.0372 187.064 13.0372C186.296 13.0372 185.655 13.3775 185.14 14.0597C184.626 14.7409 184.368 15.6688 184.368 16.8413V22.2297H181.775V10.9694H184.368V13.2895H184.413C184.666 12.4977 185.055 11.8802 185.581 11.4369C186.107 10.9938 186.694 10.7715 187.342 10.7715C187.811 10.7715 188.17 10.8419 188.415 10.9804L188.418 13.3999H188.417ZM199.969 17.2923H192.163C192.193 18.3329 192.518 19.1357 193.142 19.7007C193.764 20.2646 194.619 20.5471 195.708 20.5471C196.931 20.5471 198.053 20.1876 199.074 19.4697V21.5252C198.03 22.1706 196.651 22.4933 194.936 22.4933C193.251 22.4933 191.93 21.9819 190.972 20.9592C190.014 19.9364 189.536 18.4982 189.536 16.6437C189.536 14.8917 190.062 13.4635 191.119 12.3603C192.173 11.2571 193.484 10.7055 195.05 10.7055C196.615 10.7055 197.826 11.2004 198.683 12.1895C199.54 13.1789 199.969 14.5532 199.969 16.3131L199.968 17.2923H199.969ZM197.464 15.489C197.452 14.5724 197.237 13.8598 196.804 13.3507C196.371 12.8417 195.775 12.5871 195.015 12.5871C194.27 12.5871 193.637 12.8551 193.119 13.3899C192.602 13.9247 192.283 14.625 192.163 15.4901H197.464V15.489Z" fill="#B7BFC7"/>
</g>
<defs>
<clipPath id="clip0_402_19656">
<rect width="200" height="27.84" fill="white" transform="translate(0 0.0800781)"/>
</clipPath>
</defs>
</svg>
