<svg width="215" height="52" viewBox="0 0 215 52" fill="none" xmlns="http://www.w3.org/2000/svg">
<path d="M21.0909 38.1991C20.0115 38.8074 18.9335 39.4181 17.8523 40.023C17.2239 40.3745 16.56 40.6732 15.9722 41.0821C15.6969 41.2735 15.498 41.6458 15.3789 41.9772C15.0457 42.9044 14.4047 43.4996 13.4997 43.7948C13.2713 43.8693 12.9233 43.7815 12.7081 43.6452C12.3695 43.4308 12.4637 43.0247 12.4997 42.6915C12.5941 41.8179 12.7197 40.9477 12.8317 40.0761C12.8914 39.612 12.9422 39.1467 13.0132 38.6845C13.0256 38.6038 13.1045 38.5151 13.1768 38.4649C13.7683 38.0536 14.3654 37.6506 15.0204 37.2388C15.7893 37.3514 16.4979 37.475 17.2081 37.5885C18.5019 37.7952 19.7966 37.9959 21.0909 38.1991Z" fill="#FF1460"/>
<path d="M21.1215 38.1953C19.7969 37.9958 18.5022 37.7951 17.2084 37.5884C16.4982 37.4749 15.7896 37.3513 15.0474 37.2209C15.263 37.0448 15.5114 36.8802 15.7769 36.6928C16.0464 36.6409 16.3001 36.5778 16.5509 36.588C18.4174 36.6641 20.2829 36.7661 22.1497 36.8326C22.6044 36.8488 23.0627 36.7634 23.5563 36.7316C23.2544 36.9611 22.9236 37.1974 22.5747 37.403C22.1078 37.6783 21.6268 37.9298 21.1215 38.1953Z" fill="#1F213A"/>
<path d="M24.6029 25.5312C24.6841 25.5669 24.7584 25.6044 24.7869 25.6638C25.4391 27.0267 26.3708 28.166 27.5272 29.1776C27.4029 29.1497 27.2775 29.1266 27.1547 29.0934C25.5903 28.6702 24.2247 27.8982 23.0704 26.758C23.0109 26.6992 22.9685 26.6232 22.916 26.5266C23.4674 26.1798 24.021 25.8615 24.6029 25.5312Z" fill="#1C2239"/>
<path d="M37.5332 25.7461C35.8434 25.2527 34.7151 24.2007 34.1116 22.5885C33.7876 21.7229 33.4737 20.8535 33.1615 19.9835C32.6029 18.4272 33.2929 16.9002 34.8406 16.3204C36.5022 15.6978 38.1739 15.1021 39.8416 14.4962C39.9472 14.4578 40.0573 14.4321 40.2043 14.3892C40.4678 15.113 40.7395 15.8097 40.9752 16.5184C41.3708 17.7077 41.8264 18.8857 42.1052 20.1032C42.458 21.6445 42.2181 23.1757 41.6739 24.6573C41.5101 25.1033 41.176 25.3484 40.7561 25.5143C39.7176 25.9247 38.6551 26.0059 37.5332 25.7461ZM35.5368 22.0488C35.857 22.5376 36.1445 23.0537 36.5161 23.4996C36.6384 23.6463 37.0166 23.7077 37.2087 23.6322C37.4004 23.557 37.6118 23.2716 37.6321 23.0608C37.8051 21.2673 37.9421 19.4702 38.0769 17.6733C38.1184 17.1202 37.7817 16.8697 37.2549 17.0504C36.6293 17.2651 36.0071 17.4913 35.3902 17.73C34.6053 18.0338 34.3203 18.6653 34.6015 19.4706C34.8955 20.3128 35.2036 21.1501 35.5368 22.0488Z" fill="#172239"/>
<path d="M35.5209 22.0195C35.2034 21.1504 34.8952 20.3131 34.6012 19.471C34.32 18.6656 34.605 18.0341 35.3899 17.7304C36.0068 17.4916 36.629 17.2654 37.2547 17.0507C37.7815 16.87 38.1181 17.1205 38.0767 17.6736C37.9419 19.4705 37.8048 21.2676 37.6318 23.0611C37.6115 23.272 37.4002 23.5573 37.2085 23.6326C37.0163 23.708 36.6382 23.6466 36.5159 23.4999C36.1442 23.054 35.8568 22.5379 35.5209 22.0195Z" fill="#FCFCFD"/>
<path d="M24.6307 25.5191C23.9085 23.5372 23.2049 21.5483 22.455 19.577C22.1472 18.7678 21.9797 17.9649 22.2407 17.1296C22.5864 16.0232 23.3506 15.3217 24.4395 14.9354C26.2543 14.2917 28.0608 13.6243 29.9684 12.9314C29.6252 12.4709 29.346 12.0006 28.9738 11.6216C28.5378 11.1776 28.0373 10.791 27.5347 10.4203C27.0073 10.0314 26.9907 9.50199 27.5308 9.11643C27.9914 8.78763 28.4432 8.44646 28.9041 8.11812C29.2045 7.90411 29.4597 8.0016 29.699 8.24502C30.6917 9.25463 31.2741 10.4763 31.5773 11.8447C31.6107 11.9956 31.6453 12.1462 31.6806 12.3024C33.2082 11.7516 34.7298 11.2127 36.2443 10.6545C38.0639 9.98381 39.9028 11.0707 40.4647 12.7397C41.138 14.7397 41.9317 16.6994 42.5944 18.7027C43.3417 20.9618 43.1654 23.2043 42.2443 25.3929C41.7004 26.6852 40.9021 27.8053 39.8606 28.731C38.5374 29.9073 37.0068 30.7154 35.2417 30.9854C34.44 31.1081 33.6201 31.1121 32.8084 31.1693C32.7653 31.1724 32.7156 31.1835 32.6792 31.1675C32.0418 30.8878 31.8724 31.3201 31.594 31.7706C31.2957 32.2532 30.8939 32.748 30.4151 33.0294C28.3948 34.2168 26.3299 35.3284 24.2782 36.462C24.0828 36.57 23.8654 36.6382 23.5887 36.7248C23.0626 36.7634 22.6042 36.8488 22.1495 36.8326C20.2828 36.7661 18.4173 36.6641 16.5508 36.588C16.3 36.5778 16.0462 36.641 15.7938 36.6701C15.2382 36.6302 14.6825 36.5911 14.1269 36.55C13.7571 36.5227 13.3851 36.5095 13.0185 36.4587C12.6563 36.4086 12.4583 36.5341 12.3053 36.8751C12.0512 37.4412 11.7372 37.9804 11.4459 38.5297C11.0093 39.3529 10.2627 39.7559 9.41529 40.0202C9.30776 40.0538 9.19844 40.1101 9.09056 40.1087C8.77875 40.1046 8.34376 40.193 8.1876 40.0276C8.00191 39.8309 7.97236 39.3949 8.0204 39.0852C8.23665 37.6908 8.51027 36.3054 8.74868 34.9143C8.79778 34.6278 8.92836 34.4341 9.17628 34.2948C11.2802 33.1128 13.3826 31.9283 15.4845 30.7428C16.1591 30.3623 16.8308 29.9766 17.5585 29.5622C17.3022 29.1419 17.0616 28.7355 16.8097 28.3361C15.9518 26.9757 15.0799 25.624 14.2395 24.2528C14.0971 24.0204 13.9947 23.6971 14.0282 23.4356C14.1273 22.6625 14.8378 22.603 15.3714 22.8549C16.8674 23.5609 18.3453 24.305 19.8325 25.0296C20.8359 25.5185 21.8429 25.9999 22.883 26.5198C22.9681 26.623 23.0105 26.699 23.07 26.7578C24.2243 27.898 25.5899 28.67 27.1543 29.0932C27.2771 29.1264 27.4025 29.1495 27.5268 29.1774C26.3704 28.1658 25.4387 27.0265 24.7865 25.6636C24.758 25.6042 24.6837 25.5667 24.6307 25.5191ZM37.5669 25.7586C38.6552 26.0062 39.7177 25.925 40.7561 25.5146C41.176 25.3487 41.5101 25.1036 41.6739 24.6576C42.2181 23.176 42.4581 21.6448 42.1052 20.1035C41.8265 18.886 41.3709 17.708 40.9752 16.5186C40.7395 15.81 40.4678 15.1133 40.2044 14.3895C40.0574 14.4324 39.9472 14.4581 39.8417 14.4965C38.1739 15.1024 36.5022 15.6981 34.8407 16.3207C33.293 16.9005 32.603 18.4275 33.1615 19.9838C33.4738 20.8538 33.7877 21.7232 34.1117 22.5888C34.7151 24.201 35.8435 25.253 37.5669 25.7586Z" fill="#FF1460"/>
<path d="M86.4221 21.0133C87.1997 19.8187 88.1864 18.9815 89.5851 18.727C89.7614 18.6949 89.9382 18.6398 90.1149 18.6396C97.0446 18.6353 103.974 18.636 110.904 18.637C110.992 18.637 111.08 18.6492 111.202 18.6582C111.202 20.1679 111.202 21.6558 111.202 23.2033C109.563 23.2033 107.935 23.2033 106.25 23.2033C106.25 26.5521 106.25 29.8422 106.25 33.1609C104.396 33.1609 102.601 33.1609 100.747 33.1609C100.747 29.8903 100.747 26.6003 100.747 23.2778C100.566 23.2498 100.438 23.2129 100.309 23.2127C97.9765 23.2092 95.6434 23.2031 93.3105 23.2199C93.0513 23.2217 92.793 23.359 92.3711 23.4804C93.434 24.2991 94.3223 25.029 95.2571 25.6935C96.9373 26.8879 97.348 29.6247 96.0912 31.2276C95.0742 32.5246 93.7083 33.1332 92.1295 33.1723C89.476 33.2379 86.8196 33.1903 84.1167 33.1903C84.1167 31.6382 84.1167 30.1038 84.1167 28.4944C85.967 28.4944 87.8443 28.4944 89.8869 28.4944C89.6882 28.1919 89.6094 27.9731 89.4542 27.8528C88.7615 27.3159 88.0931 26.7219 87.3293 26.3087C86.2698 25.7355 85.6762 23.4407 85.9416 22.5146C86.0815 22.0265 86.2563 21.5485 86.4221 21.0133Z" fill="white"/>
<path d="M154.488 30.5514C154.116 29.3423 153.575 28.2823 152.544 27.6007C151.983 27.2302 151.317 27.0188 150.601 26.691C150.601 28.9393 150.601 31.0328 150.601 33.1579C148.742 33.1579 146.931 33.1579 145.089 33.1579C145.089 28.3235 145.089 23.51 145.089 18.6982C148.535 18.4478 152.686 19.7878 155.03 22.9428C155.03 21.473 155.03 20.0843 155.03 18.6357C155.984 18.6357 156.879 18.6357 157.773 18.6357C158.644 18.6357 159.516 18.6357 160.415 18.6357C160.415 23.5056 160.415 28.319 160.415 33.1899C158.709 33.1899 157.029 33.208 155.351 33.16C155.194 33.1555 154.984 32.7508 154.913 32.4996C154.737 31.8791 154.628 31.2398 154.488 30.5514Z" fill="white"/>
<path d="M127.976 28.4832C128.078 29.1212 128.131 29.7542 128.143 30.3879C128.161 31.2879 128.148 32.1884 128.148 33.1905C126.81 33.1905 125.48 33.2371 124.155 33.1724C123.404 33.1356 122.628 33.0078 121.925 32.7516C121.313 32.5285 120.725 32.1371 120.237 31.6969C119.314 30.8648 118.472 29.9443 117.507 28.971C117.507 30.4243 117.507 31.7662 117.507 33.1488C115.633 33.1488 113.822 33.1488 111.97 33.1488C111.97 30.56 111.97 27.9637 111.97 25.2895C112.188 25.2895 112.41 25.2895 112.632 25.2895C115.288 25.2895 117.944 25.3116 120.599 25.2629C120.95 25.2564 121.394 24.9611 121.608 24.6645C121.764 24.4493 121.742 23.8645 121.565 23.7051C121.262 23.4326 120.777 23.2376 120.366 23.231C117.803 23.1899 115.239 23.2103 112.676 23.2103C112.449 23.2103 112.222 23.2103 111.964 23.2103C111.964 21.6762 111.964 20.1886 111.964 18.636C112.203 18.636 112.426 18.636 112.65 18.636C115.837 18.636 119.025 18.6725 122.211 18.6245C124.773 18.5859 127.694 20.8557 127.305 24.1275C127.089 25.9476 125.996 27.1816 124.23 28.1173C124.615 28.2702 124.873 28.4526 125.138 28.4633C126.061 28.5006 126.985 28.4782 127.976 28.4832Z" fill="white"/>
<path d="M71.1147 18.6382C73.9695 18.6367 76.7616 18.6367 79.5976 18.6367C80.8652 23.4617 82.1284 28.2697 83.4213 33.1909C82.8504 33.1909 82.3353 33.1909 81.8201 33.1909C80.5964 33.1909 79.3723 33.2055 78.1493 33.1757C77.9581 33.1711 77.6664 33.0061 77.6033 32.8442C77.4271 32.3928 77.3467 31.9042 77.2182 31.389C76.0245 31.389 74.8262 31.3731 73.6293 31.4066C73.4555 31.4114 73.1995 31.6191 73.1355 31.7905C72.9734 32.2247 72.8988 32.6915 72.7836 33.1681C70.8778 33.1681 68.9666 33.1681 67.0606 33.1681C68.255 28.5299 69.442 23.9061 70.6458 19.2866C70.707 19.0516 70.9132 18.8544 71.1147 18.6382ZM75.6134 25.3508C75.5093 24.924 75.4052 24.4973 75.301 24.0706C75.2602 24.0653 75.2194 24.06 75.1786 24.0548C74.8632 25.2354 74.5478 26.416 74.2265 27.6188C74.9054 27.6188 75.5212 27.6188 76.2303 27.6188C76.0177 26.8697 75.8186 26.1687 75.6134 25.3508Z" fill="white"/>
<path d="M137.826 33.0517C136.57 33.2092 135.383 33.1546 134.241 32.7713C131.402 31.8183 129.482 29.9147 129.022 26.9345C128.61 24.2697 129.587 22.0005 131.754 20.2944C133.397 19.0011 135.272 18.52 137.318 18.6404C140.524 18.8291 143.691 21.4294 144.259 24.5968C144.929 28.3323 142.489 31.5409 139.327 32.7266C138.871 32.8976 138.369 32.9464 137.826 33.0517ZM134.106 25.1219C134.06 25.2931 133.995 25.4617 133.972 25.6359C133.854 26.5471 134.592 27.8217 135.567 28.2381C136.736 28.7372 137.867 28.4238 138.592 27.6415C139.318 26.8579 139.651 26.0096 139.12 24.9454C138.625 23.9534 137.577 23.1335 136.65 23.2242C135.49 23.3378 134.649 23.9752 134.106 25.1219Z" fill="white"/>
<path d="M204.361 27.4466C205.133 30.4311 203.523 32.7854 200.634 33.0048C197.776 33.2218 194.888 33.0522 191.962 33.0522C191.962 31.6471 191.962 30.1129 191.962 28.4774C192.878 28.4774 193.837 28.4877 194.795 28.4745C195.728 28.4617 196.671 28.5375 197.596 28.4185C197.594 28.3488 197.593 28.2792 197.592 28.2096C196.611 27.4334 195.608 26.6837 194.655 25.8747C193.373 24.7858 193.43 21.7566 194.522 20.5017C195.67 19.1822 197.023 18.5669 198.781 18.6176C201.269 18.6895 203.76 18.6359 206.288 18.6359C206.288 20.1623 206.288 21.6499 206.288 23.2101C204.653 23.2101 203.022 23.2101 201.391 23.2101C201.206 23.2101 201.015 23.1816 200.838 23.2187C200.676 23.2526 200.53 23.3576 200.377 23.4313C200.469 23.5889 200.526 23.7908 200.659 23.8969C201.541 24.5989 202.475 25.2395 203.316 25.9858C203.74 26.3621 204.005 26.9179 204.361 27.4466Z" fill="white"/>
<path d="M176.662 20.5771C176.662 22.3548 176.656 24.0635 176.663 25.7721C176.675 28.6013 175.269 30.5899 172.977 32.0758C171.765 32.8616 170.381 33.1672 169.013 33.1517C166.565 33.1242 164.445 32.2507 162.824 30.2664C161.734 28.9329 161.255 27.4736 161.271 25.7872C161.292 23.434 161.276 21.0805 161.276 18.6815C162.924 18.6815 164.55 18.6815 166.266 18.6815C166.266 19.1333 166.266 19.6083 166.266 20.0834C166.266 21.9536 166.292 23.8243 166.258 25.6939C166.229 27.242 167.523 28.4938 168.961 28.4807C170.471 28.4669 171.665 27.2694 171.67 25.7088C171.678 23.3795 171.672 21.0501 171.672 18.6782C173.327 18.6782 174.953 18.6782 176.662 18.6782C176.662 19.2795 176.662 19.8938 176.662 20.5771Z" fill="white"/>
<path d="M185.257 18.6357C187.77 18.6357 190.214 18.6357 192.7 18.6357C192.7 20.1527 192.7 21.64 192.7 23.1858C191.131 23.1858 189.551 23.1858 187.914 23.1858C187.914 26.5315 187.914 29.8199 187.914 33.149C186.048 33.149 184.238 33.149 182.37 33.149C182.37 29.869 182.37 26.5807 182.37 23.2345C180.689 23.2345 179.063 23.2345 177.396 23.2345C177.396 21.6899 177.396 20.2027 177.396 18.6357C179.989 18.6357 182.588 18.6357 185.257 18.6357Z" fill="white"/>
</svg>
